<svg xmlns="http://www.w3.org/2000/svg" xmlns:xlink="http://www.w3.org/1999/xlink" style="margin:auto;background:0 0;display:block;shape-rendering:auto" width="22" height="22" preserveAspectRatio="xMidYMid" viewBox="0 0 100 100"><g transform="rotate(0 50 50)"><rect width="8" height="23" x="46" y="11.5" fill="#D13ADE" rx="0" ry="0"><animate attributeName="opacity" begin="-1.346153846153846s" dur="1.5384615384615383s" keyTimes="0;1" repeatCount="indefinite" values="1;0"/></rect></g><g transform="rotate(45 50 50)"><rect width="8" height="23" x="46" y="11.5" fill="#D13ADE" rx="0" ry="0"><animate attributeName="opacity" begin="-1.1538461538461537s" dur="1.5384615384615383s" keyTimes="0;1" repeatCount="indefinite" values="1;0"/></rect></g><g transform="rotate(90 50 50)"><rect width="8" height="23" x="46" y="11.5" fill="#D13ADE" rx="0" ry="0"><animate attributeName="opacity" begin="-0.9615384615384615s" dur="1.5384615384615383s" keyTimes="0;1" repeatCount="indefinite" values="1;0"/></rect></g><g transform="rotate(135 50 50)"><rect width="8" height="23" x="46" y="11.5" fill="#D13ADE" rx="0" ry="0"><animate attributeName="opacity" begin="-0.7692307692307692s" dur="1.5384615384615383s" keyTimes="0;1" repeatCount="indefinite" values="1;0"/></rect></g><g transform="rotate(180 50 50)"><rect width="8" height="23" x="46" y="11.5" fill="#D13ADE" rx="0" ry="0"><animate attributeName="opacity" begin="-0.5769230769230769s" dur="1.5384615384615383s" keyTimes="0;1" repeatCount="indefinite" values="1;0"/></rect></g><g transform="rotate(225 50 50)"><rect width="8" height="23" x="46" y="11.5" fill="#D13ADE" rx="0" ry="0"><animate attributeName="opacity" begin="-0.3846153846153846s" dur="1.5384615384615383s" keyTimes="0;1" repeatCount="indefinite" values="1;0"/></rect></g><g transform="rotate(270 50 50)"><rect width="8" height="23" x="46" y="11.5" fill="#D13ADE" rx="0" ry="0"><animate attributeName="opacity" begin="-0.1923076923076923s" dur="1.5384615384615383s" keyTimes="0;1" repeatCount="indefinite" values="1;0"/></rect></g><g transform="rotate(315 50 50)"><rect width="8" height="23" x="46" y="11.5" fill="#D13ADE" rx="0" ry="0"><animate attributeName="opacity" begin="0s" dur="1.5384615384615383s" keyTimes="0;1" repeatCount="indefinite" values="1;0"/></rect></g></svg>